<svg data-v-423bf9ae="" xmlns="http://www.w3.org/2000/svg" viewBox="0 0 198.20536529679495 60" class="font"><!----><!----><!----><g data-v-423bf9ae="" id="d882ee0c-37e1-40a9-a42a-0b6cac9ba3a9" fill="#FBB600" transform="matrix(4.788412197380926,0,0,4.788412197380926,-2.6815089329093666,-17.81169592414718)"><path d="M0.56 13.52L3.85 5.03L3.85 5.03Q4.13 4.28 4.68 3.95L4.68 3.95L4.68 3.95Q5.24 3.61 6.20 3.78L6.20 3.78L9.95 13.52L8.02 13.52L7.27 11.52L7.27 11.52Q6.85 11.52 6.36 11.52L6.36 11.52L6.36 11.52Q5.87 11.51 5.47 11.58L5.47 11.58L5.47 11.58Q5.07 11.65 4.84 11.82L4.84 11.82L4.84 11.82Q4.62 12.00 4.73 12.38L4.73 12.38L4.73 12.38Q4.23 12.24 3.97 11.95L3.97 11.95L3.97 11.95Q3.71 11.66 3.65 11.34L3.65 11.34L3.65 11.34Q3.60 11.02 3.72 10.70L3.72 10.70L3.72 10.70Q3.85 10.39 4.10 10.18L4.10 10.18L4.10 10.18Q4.34 9.97 4.64 9.88L4.64 9.88L4.64 9.88Q4.94 9.79 5.27 9.75L5.27 9.75L5.27 9.75Q5.60 9.72 5.94 9.72L5.94 9.72L5.94 9.72Q6.27 9.73 6.58 9.73L6.58 9.73L5.26 6.37L5.26 6.37Q4.82 7.50 4.47 8.39L4.47 8.39L4.47 8.39Q4.13 9.28 3.81 10.09L3.81 10.09L3.81 10.09Q3.50 10.89 3.19 11.71L3.19 11.71L3.19 11.71Q2.87 12.53 2.49 13.52L2.49 13.52L0.56 13.52ZM13.02 6.29L13.02 7.07L13.02 7.07Q13.54 6.55 14.16 6.31L14.16 6.31L14.16 6.31Q14.78 6.08 15.41 6.10L15.41 6.10L15.41 6.10Q16.04 6.13 16.63 6.40L16.63 6.40L16.63 6.40Q17.22 6.66 17.67 7.15L17.67 7.15L17.67 7.15Q18.12 7.64 18.39 8.34L18.39 8.34L18.39 8.34Q18.66 9.03 18.66 9.90L18.66 9.90L18.66 9.90Q18.66 10.74 18.37 11.44L18.37 11.44L18.37 11.44Q18.07 12.14 17.58 12.64L17.58 12.64L17.58 12.64Q17.09 13.15 16.46 13.42L16.46 13.42L16.46 13.42Q15.82 13.69 15.15 13.66L15.15 13.66L15.15 13.66Q14.45 13.64 14.04 13.36L14.04 13.36L14.04 13.36Q13.64 13.09 13.45 12.73L13.45 12.73L13.45 12.73Q13.27 12.38 13.27 12.01L13.27 12.01L13.27 12.01Q13.27 11.63 13.40 11.41L13.40 11.41L13.40 11.41Q13.52 11.58 13.70 11.70L13.70 11.70L13.70 11.70Q13.87 11.82 14.08 11.88L14.08 11.88L14.08 11.88Q14.28 11.94 14.50 11.97L14.50 11.97L14.50 11.97Q14.71 12.00 14.91 12.00L14.91 12.00L14.91 12.00Q15.55 12.00 15.99 11.68L15.99 11.68L15.99 11.68Q16.42 11.37 16.64 10.90L16.64 10.90L16.64 10.90Q16.86 10.43 16.86 9.88L16.86 9.88L16.86 9.88Q16.86 9.32 16.65 8.86L16.65 8.86L16.65 8.86Q16.44 8.39 16.00 8.07L16.00 8.07L16.00 8.07Q15.57 7.76 14.91 7.76L14.91 7.76L14.91 7.76Q14.36 7.76 14 8.01L14 8.01L14 8.01Q13.64 8.26 13.42 8.66L13.42 8.66L13.42 8.66Q13.20 9.06 13.11 9.55L13.11 9.55L13.11 9.55Q13.02 10.04 13.02 10.53L13.02 10.53L13.02 16.25L11.21 16.25L11.21 7.74L11.21 7.74Q11.21 7.38 11.36 7.10L11.36 7.10L11.36 7.10Q11.51 6.82 11.76 6.63L11.76 6.63L11.76 6.63Q12.01 6.44 12.33 6.36L12.33 6.36L12.33 6.36Q12.66 6.27 13.02 6.29L13.02 6.29ZM23.30 6.10L23.30 6.10L23.30 6.10Q24.40 6.10 25.26 6.64L25.26 6.64L25.26 6.64Q26.12 7.17 26.61 7.99L26.61 7.99L26.61 7.99Q27.10 8.82 27.14 9.83L27.14 9.83L27.14 9.83Q27.17 10.84 26.63 11.80L26.63 11.80L26.63 11.80Q26.17 12.60 25.42 13.08L25.42 13.08L25.42 13.08Q24.68 13.55 23.84 13.67L23.84 13.67L23.84 13.67Q23.00 13.79 22.16 13.53L22.16 13.53L22.16 13.53Q21.31 13.27 20.64 12.60L20.64 12.60L20.64 12.60Q19.88 11.83 19.63 10.82L19.63 10.82L19.63 10.82Q19.38 9.81 19.67 8.81L19.67 8.81L19.67 8.81Q19.80 8.40 20.08 8.13L20.08 8.13L20.08 8.13Q20.37 7.87 20.73 7.74L20.73 7.74L20.73 7.74Q21.10 7.62 21.49 7.63L21.49 7.63L21.49 7.63Q21.88 7.64 22.22 7.79L22.22 7.79L22.22 7.79Q22.55 7.94 22.79 8.21L22.79 8.21L22.79 8.21Q23.02 8.48 23.06 8.88L23.06 8.88L23.06 8.88Q22.85 8.72 22.55 8.71L22.55 8.71L22.55 8.71Q22.26 8.71 21.99 8.84L21.99 8.84L21.99 8.84Q21.71 8.97 21.53 9.25L21.53 9.25L21.53 9.25Q21.34 9.52 21.34 9.93L21.34 9.93L21.34 9.93Q21.34 10.63 21.63 11.09L21.63 11.09L21.63 11.09Q21.92 11.55 22.37 11.78L22.37 11.78L22.37 11.78Q22.81 12.01 23.32 12.01L23.32 12.01L23.32 12.01Q23.83 12.01 24.27 11.77L24.27 11.77L24.27 11.77Q24.71 11.54 25.00 11.07L25.00 11.07L25.00 11.07Q25.30 10.60 25.30 9.90L25.30 9.90L25.30 9.90Q25.30 9.35 25.10 8.93L25.10 8.93L25.10 8.93Q24.91 8.51 24.58 8.24L24.58 8.24L24.58 8.24Q24.25 7.97 23.81 7.86L23.81 7.86L23.81 7.86Q23.38 7.76 22.89 7.85L22.89 7.85L22.89 7.85Q22.68 7.60 22.38 7.46L22.38 7.46L22.38 7.46Q22.08 7.31 21.73 7.26L21.73 7.26L21.73 7.26Q21.38 7.21 21.03 7.27L21.03 7.27L21.03 7.27Q20.68 7.34 20.37 7.52L20.37 7.52L20.37 7.52Q20.93 6.85 21.67 6.48L21.67 6.48L21.67 6.48Q22.41 6.10 23.30 6.10ZM30.03 3.72L30.03 3.72L30.03 13.52L28.27 13.52L28.27 5.15L28.27 5.15Q28.27 4.48 28.74 4.10L28.74 4.10L28.74 4.10Q29.22 3.71 30.03 3.72ZM33.19 3.72L33.19 3.72L33.19 13.52L31.43 13.52L31.43 5.15L31.43 5.15Q31.43 4.48 31.91 4.10L31.91 4.10L31.91 4.10Q32.38 3.71 33.19 3.72ZM38.11 6.10L38.11 6.10L38.11 6.10Q39.21 6.10 40.08 6.64L40.08 6.64L40.08 6.64Q40.94 7.17 41.43 7.99L41.43 7.99L41.43 7.99Q41.92 8.82 41.95 9.83L41.95 9.83L41.95 9.83Q41.99 10.84 41.44 11.80L41.44 11.80L41.44 11.80Q40.98 12.60 40.24 13.08L40.24 13.08L40.24 13.08Q39.49 13.55 38.65 13.67L38.65 13.67L38.65 13.67Q37.81 13.79 36.97 13.53L36.97 13.53L36.97 13.53Q36.12 13.27 35.45 12.60L35.45 12.60L35.45 12.60Q34.69 11.83 34.44 10.82L34.44 10.82L34.44 10.82Q34.19 9.81 34.48 8.81L34.48 8.81L34.48 8.81Q34.61 8.40 34.90 8.13L34.90 8.13L34.90 8.13Q35.18 7.87 35.55 7.74L35.55 7.74L35.55 7.74Q35.91 7.62 36.30 7.63L36.30 7.63L36.30 7.63Q36.69 7.64 37.03 7.79L37.03 7.79L37.03 7.79Q37.37 7.94 37.60 8.21L37.60 8.21L37.60 8.21Q37.83 8.48 37.87 8.88L37.87 8.88L37.87 8.88Q37.66 8.72 37.37 8.71L37.37 8.71L37.37 8.71Q37.07 8.71 36.80 8.84L36.80 8.84L36.80 8.84Q36.53 8.97 36.34 9.25L36.34 9.25L36.34 9.25Q36.15 9.52 36.15 9.93L36.15 9.93L36.15 9.93Q36.15 10.63 36.44 11.09L36.44 11.09L36.44 11.09Q36.74 11.55 37.18 11.78L37.18 11.78L37.18 11.78Q37.62 12.01 38.13 12.01L38.13 12.01L38.13 12.01Q38.64 12.01 39.08 11.77L39.08 11.77L39.08 11.77Q39.52 11.54 39.82 11.07L39.82 11.07L39.82 11.07Q40.11 10.60 40.11 9.90L40.11 9.90L40.11 9.90Q40.11 9.35 39.91 8.93L39.91 8.93L39.91 8.93Q39.72 8.51 39.39 8.24L39.39 8.24L39.39 8.24Q39.06 7.97 38.63 7.86L38.63 7.86L38.63 7.86Q38.19 7.76 37.70 7.85L37.70 7.85L37.70 7.85Q37.49 7.60 37.19 7.46L37.19 7.46L37.19 7.46Q36.89 7.31 36.54 7.26L36.54 7.26L36.54 7.26Q36.19 7.21 35.84 7.27L35.84 7.27L35.84 7.27Q35.49 7.34 35.18 7.52L35.18 7.52L35.18 7.52Q35.74 6.85 36.48 6.48L36.48 6.48L36.48 6.48Q37.23 6.10 38.11 6.10Z"></path></g><!----><!----></svg>