<?xml version="1.0" standalone="no"?><!DOCTYPE svg PUBLIC "-//W3C//DTD SVG 1.1//EN" "http://www.w3.org/Graphics/SVG/1.1/DTD/svg11.dtd"><svg t="1579204752315" class="icon" viewBox="0 0 1040 1024" version="1.1" xmlns="http://www.w3.org/2000/svg" p-id="32691" xmlns:xlink="http://www.w3.org/1999/xlink" width="50px" height="50px"><defs><style type="text/css"></style></defs><path d="M872 520H168a8 8 0 0 1 0-16h704a8 8 0 0 1 0 16z" fill="#263238" p-id="32692"></path><path d="M334.928 836.432a8 8 0 0 1-6.912-12.032L698.192 191.52a8 8 0 1 1 13.824 8.08L341.824 832.464a8 8 0 0 1-6.896 3.968z" fill="#263238" p-id="32693"></path><path d="M705.088 836.432a7.984 7.984 0 0 1-6.912-3.968L328.016 199.584a8 8 0 1 1 13.824-8.08L712 824.384a7.984 7.984 0 0 1-6.912 12.048z" fill="#263238" p-id="32694"></path><path d="M520 512m-240 0a240 240 0 1 0 480 0 240 240 0 1 0-480 0Z" fill="#FBB600" p-id="32695" data-spm-anchor-id="a313x.7781069.0.i93" class="selected"></path><path d="M520 760c-136.752 0-248-111.248-248-248S383.248 264 520 264 768 375.248 768 512 656.752 760 520 760z m0-480c-127.92 0-232 104.08-232 232S392.08 744 520 744 752 639.92 752 512 647.92 280 520 280z" fill="#263238" p-id="32696"></path><path d="M520 672l-112-160 112-160 112 160z" fill="#FFFFFF" p-id="32697"></path><path d="M520 680a8 8 0 0 1-6.544-3.408l-112-160a7.968 7.968 0 0 1 0-9.168l112-160c2.976-4.288 10.128-4.288 13.088 0l112 160a7.968 7.968 0 0 1 0 9.168l-112 160A8 8 0 0 1 520 680zM417.76 512L520 658.048 622.24 512 520 365.952 417.76 512z" fill="#263238" p-id="32698"></path><path d="M520 576a8.128 8.128 0 0 1-3.584-0.848l-112-56a8 8 0 0 1 0-14.304l112-56a8.032 8.032 0 0 1 7.152 0l112 56a8 8 0 0 1 0.016 14.304l-112 56A8.128 8.128 0 0 1 520 576z m-94.112-64L520 559.056 614.112 512 520 464.944 425.888 512z" fill="#263238" p-id="32699"></path><path d="M520 680a8 8 0 0 1-8-8V352a8 8 0 0 1 16 0v320a8 8 0 0 1-8 8zM952 600a87.392 87.392 0 0 1-62.224-25.776C873.152 557.616 864 535.504 864 512s9.152-45.616 25.776-62.224C906.384 433.152 928.496 424 952 424s45.616 9.152 62.224 25.776C1030.848 466.384 1040 488.496 1040 512s-9.152 45.616-25.776 62.224A87.392 87.392 0 0 1 952 600z m0-160a71.52 71.52 0 0 0-50.912 21.088c-13.6 13.6-21.088 31.68-21.088 50.912s7.488 37.312 21.088 50.912c13.6 13.6 31.664 21.088 50.912 21.088s37.312-7.488 50.912-21.088c13.616-13.6 21.088-31.68 21.088-50.912s-7.488-37.312-21.088-50.912A71.52 71.52 0 0 0 952 440zM88 600a87.392 87.392 0 0 1-62.224-25.776C9.152 557.616 0 535.504 0 512s9.152-45.616 25.776-62.224C42.384 433.152 64.496 424 88 424s45.616 9.152 62.224 25.776C166.848 466.384 176 488.496 176 512s-9.152 45.616-25.776 62.224A87.392 87.392 0 0 1 88 600z m0-160a71.52 71.52 0 0 0-50.912 21.088C23.488 474.688 16 492.768 16 512s7.488 37.312 21.088 50.912c13.6 13.6 31.68 21.088 50.912 21.088s37.312-7.488 50.912-21.088c13.6-13.6 21.088-31.68 21.088-50.912s-7.488-37.312-21.088-50.912A71.52 71.52 0 0 0 88 440zM745.472 985.472c-48.512 0-88-39.472-88-88s39.488-88 88-88 88 39.472 88 88-39.488 88-88 88z m0-160c-39.696 0-72 32.304-72 72s32.304 72 72 72 72-32.304 72-72-32.304-72-72-72zM294.528 214.528c-48.512 0-88-39.472-88-88s39.488-88 88-88 88 39.472 88 88-39.488 88-88 88z m0-160c-39.696 0-72 32.304-72 72s32.304 72 72 72 72-32.304 72-72-32.288-72-72-72zM745.472 214.528c-48.512 0-88-39.472-88-88s39.488-88 88-88 88 39.472 88 88-39.488 88-88 88z m0-160c-39.696 0-72 32.304-72 72s32.304 72 72 72 72-32.304 72-72-32.304-72-72-72zM294.528 985.472c-48.512 0-88-39.472-88-88s39.488-88 88-88 88 39.472 88 88-39.488 88-88 88z m0-160c-39.696 0-72 32.304-72 72s32.304 72 72 72 72-32.304 72-72-32.288-72-72-72z" fill="#263238" p-id="32700"></path><path d="M665.472 905.472H374.528a8 8 0 0 1-8-8c0-39.696-32.304-72-72-72-11.536 0-22.912 2.976-33.824 8.848a7.968 7.968 0 0 1-10.832-3.264L118.56 585.984a8.032 8.032 0 0 1 3.264-10.832 70.304 70.304 0 0 0 17.072-12.224C152.512 549.312 160 531.232 160 512s-7.488-37.312-21.088-50.912a70.304 70.304 0 0 0-17.072-12.224 8.032 8.032 0 0 1-3.264-10.832l131.312-245.072a7.92 7.92 0 0 1 4.736-3.872 7.904 7.904 0 0 1 6.112 0.608 70.848 70.848 0 0 0 33.808 8.848c39.696 0 72-32.304 72-72a8 8 0 0 1 8-8h290.944a8 8 0 0 1 8 8c0 39.696 32.304 72 72 72 11.536 0 22.912-2.976 33.808-8.848a7.968 7.968 0 0 1 10.848 3.264l131.312 245.072a8.032 8.032 0 0 1-3.264 10.832 70.304 70.304 0 0 0-17.072 12.224c-13.632 13.6-21.12 31.68-21.12 50.912s7.488 37.312 21.088 50.912c4.528 4.528 9.952 8.416 17.072 12.224a8.032 8.032 0 0 1 3.264 10.832L790.128 831.04a7.92 7.92 0 0 1-4.736 3.872 7.856 7.856 0 0 1-6.096-0.608 70.944 70.944 0 0 0-33.824-8.848 72.08 72.08 0 0 0-72 72 8 8 0 0 1-8 8.016z m-283.296-16h275.664a88.112 88.112 0 0 1 87.648-80c11.648 0 23.104 2.432 34.192 7.248l124.032-231.488a78.352 78.352 0 0 1-13.904-11.008C873.152 557.616 864 535.504 864 512s9.152-45.616 25.776-62.224c4.032-4.032 8.56-7.632 13.904-11.008l-124.032-231.488a85.088 85.088 0 0 1-34.192 7.248 88.128 88.128 0 0 1-87.648-80H382.176a88.112 88.112 0 0 1-87.648 80 85.136 85.136 0 0 1-34.192-7.248L136.32 438.768c5.344 3.376 9.872 6.96 13.904 11.008C166.848 466.384 176 488.496 176 512s-9.152 45.616-25.776 62.224a79.84 79.84 0 0 1-13.904 11.008l124.032 231.488a85.2 85.2 0 0 1 34.192-7.248c45.808 0 83.584 35.2 87.632 80zM432 952h-16a8 8 0 0 1 0-16h16a8 8 0 0 1 0 16zM624 952h-160a8 8 0 0 1 0-16h160a8 8 0 0 1 0 16z" fill="#263238" p-id="32701"></path><path d="M624 86.528h-16a8 8 0 0 1 0-16h16a8 8 0 0 1 0 16z" fill="#263238" p-id="32702"></path><path d="M576 86.528h-160a8 8 0 0 1 0-16h160a8 8 0 0 1 0 16z" fill="#263238" p-id="32703"></path></svg>