<?xml version="1.0" standalone="no"?><!DOCTYPE svg PUBLIC "-//W3C//DTD SVG 1.1//EN" "http://www.w3.org/Graphics/SVG/1.1/DTD/svg11.dtd"><svg t="1579195478515" class="icon" viewBox="0 0 1024 1024" version="1.1" xmlns="http://www.w3.org/2000/svg" p-id="13478" xmlns:xlink="http://www.w3.org/1999/xlink" width="90" height="90"><defs><style type="text/css"></style></defs><path d="M612.402 154.674v-13.906H70.876v532.48h773.058v-181.124h-13.906v167.218H84.784V154.674h527.618z m284.24 336.708v251.12c0 30.724-24.992 55.718-55.716 55.718H69.622c-30.724 0-55.716-24.996-55.716-55.718V131.59c0-30.748 24.992-55.764 55.716-55.764h439.616V61.92H69.622C31.23 61.92 0 93.172 0 131.59v610.912c0 38.392 31.23 69.624 69.622 69.624h771.302c38.392 0 69.622-31.232 69.622-69.624v-251.12h-13.904z" fill="#4A555F" p-id="13479"></path><path d="M863.036 492.124v200.222H51.778V121.67H538.42L516.2 94.922H69.624c-20.21 0-36.62 16.456-36.62 36.666V742.5c0 20.164 16.41 36.62 36.62 36.62h771.298c20.164 0 36.62-16.456 36.62-36.62V492.124h-14.506z" fill="#DFDFDF" p-id="13480"></path><path d="M840.994 61.92h-153.328v13.906h153.328c30.724 0 55.716 25.016 55.716 55.764v102.066h13.906V131.59c0-38.418-31.23-69.67-69.622-69.67z m-117.668 92.754h109.46v-13.906h-109.46v13.906z" fill="#4A555F" p-id="13481"></path><path d="M840.992 94.922h-129.442l16.812 26.748h147.868c-4.312-15.436-18.444-26.748-35.238-26.748z" fill="#DFDFDF" p-id="13482"></path><path d="M552.448 798.2h-185.772l-50.606 121.41h286.988L552.448 798.2z m-176.502 13.906h167.23l39.022 93.596H336.928l39.018-93.596z" fill="#4A555F" p-id="13483"></path><path d="M530.452 831.2h-141.782l-23.098 55.412h187.982z" fill="#DFDFDF" p-id="13484"></path><path d="M200.408 905.704v69.888h518.31v-69.888H200.408z m504.404 55.98H214.314v-42.074h490.498v42.074z" fill="#4A555F" p-id="13485"></path><path d="M30.52 961.684h858.082v13.906H30.52z" fill="#4A555F" p-id="13486"></path><path d="M460.236 736.59m-33.784 0a33.784 33.784 0 1 0 67.568 0 33.784 33.784 0 1 0-67.568 0Z" fill="#FFFFFF" p-id="13487"></path><path d="M460.236 695.852c-22.462 0-40.738 18.274-40.738 40.738s18.274 40.736 40.738 40.736c22.462 0 40.738-18.274 40.738-40.736s-18.276-40.738-40.738-40.738z m0 67.568c-14.794 0-26.83-12.038-26.83-26.83 0-14.794 12.036-26.83 26.83-26.83 14.794 0 26.83 12.036 26.83 26.83 0 14.792-12.036 26.83-26.83 26.83zM664.744 67.17a40.924 40.924 0 0 0-34.49-18.762H565.44v13.906h64.816a27.06 27.06 0 0 1 22.81 12.41l35.984 55.614v253.716h13.906V126.234l-38.212-59.064zM955.938 420.068H738.968v13.906H951.92l24.004 15.158H727.586v13.906H1024z" fill="#4A555F" p-id="13488"></path><path d="M824.474 263.708v60.002l-20.322-13.044-19.566 12.564v-59.522h-88.562v120.348c23.684 0 42.976 19.222 42.976 42.976h174.034v-163.324h-88.56zM795.434 144.734v60.002l-20.322-12.082-19.634 11.602V144.734h-59.452v118.974H854.2V144.734z" fill="#FFD452" p-id="13489"></path><path d="M689.05 256.776v134.234h6.954c19.854 0 36.01 16.154 36.01 36.012v6.954h188.01v-177.198H689.05z m217.066 163.292h-160.68c-3.074-21.974-20.506-39.406-42.48-42.482v-106.904h203.16v149.386z" fill="#4A555F" p-id="13490"></path><path d="M689.04 137.792v132.902h172.102V137.792H689.04z m158.196 118.994h-144.288V151.698h144.288v105.088z" fill="#4A555F" p-id="13491"></path><path d="M695.994 427.036m-16.458 0a16.458 16.458 0 1 0 32.916 0 16.458 16.458 0 1 0-32.916 0Z" fill="#F58E6F" p-id="13492"></path><path d="M695.994 377.114c-27.528 0-49.922 22.394-49.922 49.92 0 27.528 22.394 49.922 49.922 49.922s49.922-22.394 49.922-49.922c0-27.526-22.394-49.92-49.922-49.92z m0 85.936c-19.86 0-36.016-16.156-36.016-36.016 0-19.856 16.156-36.014 36.016-36.014s36.016 16.156 36.016 36.014c0 19.86-16.156 36.016-36.016 36.016zM623.718 48.41h-61.972c-13.59 0-24.648 11.058-24.648 24.65 0 13.594 11.06 24.652 24.648 24.652h61.972c13.594 0 24.654-11.058 24.654-24.652 0-13.592-11.06-24.65-24.654-24.65z m0 35.396h-61.972a10.758 10.758 0 0 1-10.742-10.746 10.756 10.756 0 0 1 10.742-10.744h61.972a10.756 10.756 0 0 1 10.746 10.744 10.758 10.758 0 0 1-10.746 10.746zM748.554 137.792v78.636l26.528-15.674 27.284 16.198v-79.16h-53.812z m39.906 54.732l-13.358-7.932-12.638 7.468V151.698h25.998v40.826zM777.626 256.776v79.168l26.536-17.014 27.278 17.52v-79.672h-53.814z m39.91 54.212l-13.364-8.584-12.638 8.102V270.68h26.002v40.308z" fill="#4A555F" p-id="13493"></path><path d="M637.458 86.616l-11.146 8.316 33.702 45.178v255.306h13.906V135.492zM234.052 291.708v17.322H180.042v-54.006h51.674v-13.908h-65.58v81.822h81.822v-31.23z" fill="#4A555F" p-id="13494"></path><path d="M173.09 387.35h67.914v67.914H173.09zM173.09 526.63h67.914v67.914H173.09z" fill="#F58E6F" p-id="13495"></path><path d="M166.136 380.396v81.82h81.822v-81.82H166.136z m67.916 67.914H180.042v-54.008h54.01v54.008zM166.136 519.676v81.82h81.822v-81.82H166.136z m67.916 67.914H180.042v-54.008h54.01v54.008zM443.558 264.914h13.906v-13.906h-13.906v13.906z m-27.812 0h13.906v-13.906h-13.906v13.906z m-27.814 0h13.906v-13.906h-13.906v13.906z m-27.812 0h13.906v-13.906h-13.906v13.906z m-55.626 0h13.906v-13.906h-13.906v13.906z m27.812 0h13.906v-13.906h-13.906v13.906z m222.504 0h13.906v-13.906h-13.906v13.906z m-83.438 0h13.906v-13.906h-13.906v13.906z m111.252-13.906v13.906h13.906v-13.906h-13.906z m-83.44 13.906h13.906v-13.906h-13.906v13.906z m27.814 0h13.906v-13.906h-13.906v13.906zM304.494 294.52h287.916v13.906H304.494zM415.746 406.502h13.906v-13.906h-13.906v13.906z m-27.814 0h13.906v-13.906h-13.906v13.906z m-27.812 0h13.906v-13.906h-13.906v13.906z m-27.814 0h13.906v-13.906h-13.906v13.906z m-27.812 0h13.906v-13.906h-13.906v13.906z m250.316 0h13.906v-13.906h-13.906v13.906z m27.814-13.906v13.906h13.906v-13.906h-13.906z m-55.626 13.906h13.906v-13.906h-13.906v13.906z m-55.626 0h13.906v-13.906h-13.906v13.906z m-27.814 0h13.906v-13.906h-13.906v13.906z m55.626 0h13.906v-13.906h-13.906v13.906zM304.494 436.11h287.916v13.906H304.494zM415.746 548.094h13.906v-13.906h-13.906v13.906z m-55.626 0h13.906v-13.906h-13.906v13.906z m27.812 0h13.906v-13.906h-13.906v13.906z m194.692-13.906v13.906h13.906v-13.906h-13.906z m-250.318 13.906h13.906v-13.906h-13.906v13.906z m-27.812 0h13.906v-13.906h-13.906v13.906z m250.316 0h13.906v-13.906h-13.906v13.906z m-27.812 0h13.906v-13.906h-13.906v13.906z m-55.626 0h13.906v-13.906h-13.906v13.906z m-27.814 0h13.906v-13.906h-13.906v13.906z m55.626 0h13.906v-13.906h-13.906v13.906zM304.494 577.702h425.732v13.906H304.494zM270.412 228.53l-57.9 53.074-13.52-16.574-10.774 8.792 22.828 27.99 68.762-63.028z" fill="#4A555F" p-id="13496"></path></svg>