<?xml version="1.0" standalone="no"?><!DOCTYPE svg PUBLIC "-//W3C//DTD SVG 1.1//EN" "http://www.w3.org/Graphics/SVG/1.1/DTD/svg11.dtd"><svg t="1579205534736" class="icon" viewBox="0 0 1024 1024" version="1.1" xmlns="http://www.w3.org/2000/svg" p-id="51846" width="40" height="40" xmlns:xlink="http://www.w3.org/1999/xlink"><defs><style type="text/css"></style></defs><path d="M681.808 513.888l-10.048 17.392a15.984 15.984 0 0 1-18.976 7.152l-26.208-8.864-6.56-3.776A159.568 159.568 0 0 1 560 560.656v7.36l-5.424 27.136a16.016 16.016 0 0 1-15.696 12.848h-53.76a16 16 0 0 1-15.696-12.864L464 568v-7.36a159.568 159.568 0 0 1-60.016-34.864l-6.56 3.776-26.208 8.864a15.968 15.968 0 0 1-18.976-7.152l-26.88-46.56a16 16 0 0 1 3.296-20.016l20.784-18.272 6.448-3.728C353.408 431.52 352 419.936 352 408s1.408-23.52 3.888-34.704l-6.448-3.728-20.784-18.272a16 16 0 0 1-3.296-20.016l26.88-46.56a15.984 15.984 0 0 1 18.976-7.152l26.208 8.864 6.544 3.776a159.568 159.568 0 0 1 60.016-34.864V248l5.424-27.136c1.504-7.488 8.08-12.864 15.712-12.864h53.76a16 16 0 0 1 15.696 12.864L560 248v7.344a159.568 159.568 0 0 1 60.016 34.864l6.544-3.776 26.208-8.864a15.968 15.968 0 0 1 18.976 7.152l10.048 17.392-77.968 77.968a96 96 0 1 0 0.016 55.84l77.968 77.968z" fill="#FFD740" p-id="51847"></path><path d="M608 984a8 8 0 0 1-8-8v-144a8 8 0 0 1 16 0v144a8 8 0 0 1-8 8z" fill="#263238" p-id="51848"></path><path d="M621.168 408l96 96V448h200v-80h-200v-56z" fill="#40C4FF" p-id="51849"></path><path d="M717.168 512a8.064 8.064 0 0 1-5.664-2.336l-96-96a8 8 0 0 1 0-11.312l96-96a8 8 0 1 1 13.664 5.664v48h192a8 8 0 0 1 8 8v80a8 8 0 0 1-8 8h-192v48a8 8 0 0 1-8 7.984z m-84.688-104l76.688 76.688V448a8 8 0 0 1 8-8h192v-64h-192a8 8 0 0 1-8-8v-36.688L632.48 408zM512 512c-57.344 0-104-46.656-104-104S454.656 304 512 304a103.424 103.424 0 0 1 99.504 73.744 8.016 8.016 0 0 1-15.312 4.656A87.504 87.504 0 0 0 512 320c-48.528 0-88 39.472-88 88S463.472 496 512 496a87.472 87.472 0 0 0 84.192-62.4 8 8 0 0 1 15.312 4.656A103.424 103.424 0 0 1 512 512z" fill="#263238" p-id="51850"></path><path d="M538.88 616h-53.776a24.08 24.08 0 0 1-23.536-19.296l-5.488-30.272a165.984 165.984 0 0 1-53.12-30.848l-1.552 0.896-27.648 9.52a24.064 24.064 0 0 1-28.48-10.736l-26.88-46.56a24.08 24.08 0 0 1 4.944-30.032l23.552-19.92a167.104 167.104 0 0 1-2.912-30.768c0-10.096 0.976-20.384 2.896-30.672l-1.456-0.832-22.08-19.2a24.064 24.064 0 0 1-4.944-30.016l26.88-46.56a24.112 24.112 0 0 1 28.48-10.736l29.12 10.48a166.048 166.048 0 0 1 53.088-30.88V248l5.584-28.704a24.08 24.08 0 0 1 23.536-19.296h53.76c11.392 0 21.296 8.112 23.536 19.296l5.472 30.256a166.56 166.56 0 0 1 53.12 30.848l1.552-0.896 27.648-9.52a24.048 24.048 0 0 1 28.48 10.736l10.048 17.392a8 8 0 0 1-13.856 8l-10.048-17.392a8.016 8.016 0 0 0-9.488-3.584l-26.208 8.864-5.104 3.136a8.048 8.048 0 0 1-9.408-1.024 150.624 150.624 0 0 0-57.008-33.136 8 8 0 0 1-5.6-7.632V248l-5.264-25.568a8.032 8.032 0 0 0-7.856-6.432h-53.76a8.032 8.032 0 0 0-7.84 6.432l-5.424 27.136 0.16 5.776a8 8 0 0 1-5.6 7.632 150.832 150.832 0 0 0-57.008 33.136 8.016 8.016 0 0 1-9.408 1.024l-6.544-3.776-24.768-8.224a7.984 7.984 0 0 0-9.488 3.584l-26.88 46.56a8 8 0 0 0 1.648 10l20.784 18.272 5.168 2.8a8.016 8.016 0 0 1 3.824 8.672c-2.496 11.056-3.728 22.144-3.728 32.976s1.248 21.92 3.696 32.976a8.016 8.016 0 0 1-3.808 8.672l-6.464 3.728-19.504 17.328a8.048 8.048 0 0 0-1.648 10.016l26.88 46.56a8 8 0 0 0 9.488 3.584l26.208-8.864 5.12-3.136a8.016 8.016 0 0 1 9.408 1.024 150.576 150.576 0 0 0 57.008 33.12 8 8 0 0 1 5.6 7.632v7.36l5.28 25.568a8.032 8.032 0 0 0 7.84 6.432h53.776a8.032 8.032 0 0 0 7.84-6.432l5.424-27.136-0.16-5.792a8 8 0 0 1 5.6-7.632 150.576 150.576 0 0 0 57.008-33.12 8 8 0 0 1 9.408-1.024l6.56 3.776 24.768 8.224a7.984 7.984 0 0 0 9.488-3.584l10.048-17.392a8 8 0 0 1 13.856 8l-10.048 17.392a24.064 24.064 0 0 1-28.48 10.736l-29.12-10.48a166.288 166.288 0 0 1-53.104 30.88v1.6l-5.584 28.704A24.016 24.016 0 0 1 538.88 616z" fill="#263238" p-id="51851"></path><path d="M352 984a8 8 0 0 1-8-8l-0.016-239.232-48.992-43.232A328.096 328.096 0 0 1 184 447.584V416c0-180.864 147.136-328 328-328 149.44 0 279.904 101.152 317.264 246a8 8 0 1 1-15.488 4C778.224 200.224 654.128 104 512 104c-172.032 0-312 139.968-312 312v31.6a312.16 312.16 0 0 0 105.568 233.952l51.696 45.616a7.968 7.968 0 0 1 2.704 6L360 976a8 8 0 0 1-8 8zM712 840H528a8 8 0 0 1 0-16h184c61.76 0 112-50.24 112-112V608a8 8 0 0 1 8-8h42.272c12.224 0 22.848-6.48 28.448-17.344 5.6-10.88 4.688-23.296-2.4-33.248l-46.256-64.752a8 8 0 1 1 13.008-9.296l46.256 64.752c10.496 14.688 11.888 33.808 3.616 49.872a47.84 47.84 0 0 1-42.672 26.032H840v96c0 70.56-57.424 127.984-128 127.984zM96 920H80a8 8 0 0 1 0-16h16a8 8 0 0 1 0 16zM304 920H128a8 8 0 0 1 0-16h176a8 8 0 0 1 0 16zM880 920h-16a8 8 0 0 1 0-16h16a8 8 0 0 1 0 16zM832 920H656a8 8 0 0 1 0-16h176a8 8 0 0 1 0 16zM944 184h-64a8 8 0 0 1 0-16h64a8 8 0 0 1 0 16zM864 88h-64a8 8 0 0 1 0-16h64a8 8 0 0 1 0 16z" fill="#263238" p-id="51852"></path><path d="M832 120a8 8 0 0 1-8-8V48a8 8 0 0 1 16 0v64a8 8 0 0 1-8 8z" fill="#263238" p-id="51853"></path><path d="M912 216a8 8 0 0 1-8-8V144a8 8 0 0 1 16 0v64a8 8 0 0 1-8 8z" fill="#263238" p-id="51854"></path></svg>