<svg data-v-fde0c5aa="" xmlns="http://www.w3.org/2000/svg" viewBox="0 0 300 300" class="icon"><!----><defs data-v-fde0c5aa=""><!----></defs><rect data-v-fde0c5aa="" fill="#FFFDFB" x="0" y="0" width="600px" height="600px" class="logo-background-square"></rect><!----><defs data-v-fde0c5aa=""><!----></defs><g data-v-fde0c5aa="" id="1e161407-d5c1-4d29-a955-e4694cc919f3" fill="#FBB600" stroke="none" transform="matrix(3.928488470389106,0,0,3.928488470389106,40.004651978139705,41.96541314274418)"><g><path d="M55 5h-1.586L51 2.586V1a1 1 0 1 0-2 0v1.586L46.586 5H45a1 1 0 1 0 0 2h1.586L49 9.414V11a1 1 0 1 0 2 0V9.414L53.414 7H55a1 1 0 1 0 0-2M6.259 9.966a1 1 0 1 0-.518-1.932 1 1 0 0 0 .518 1.932M52.741 16.034a1 1 0 1 0 .518 1.932 1 1 0 0 0-.518-1.932M36.259 5.966a1 1 0 1 0-.52-1.933 1 1 0 0 0 .52 1.933M2.741 53.034a1 1 0 1 0 .518 1.932 1 1 0 0 0-.518-1.932M.741 42.034a1 1 0 1 0 .518 1.932 1 1 0 0 0-.518-1.932M43.741 53.034a1 1 0 1 0 .518 1.932 1 1 0 0 0-.518-1.932M52.741 41.034a1 1 0 1 0 .518 1.932 1 1 0 0 0-.518-1.932M.741 3.034a1 1 0 1 0 .518 1.932 1 1 0 0 0-.518-1.932M12.259 2.966a1 1 0 1 0-.518-1.932 1 1 0 0 0 .518 1.932M28.78 38.808c6.204.47 13.871 1.057 19.47 1.504l1.501.03a24.644 24.644 0 0 0 1.436-4.017l-.704.072-21.703 2.411M49.064 19.345l.563.039a24.962 24.962 0 0 0-2.458-4.133l-1.614.298c-3.569.567-9.1 1.456-13.644 2.188l17.153 1.608M2.976 30.621l13.775-1.723c-4.203-.642-9.481-1.442-13.535-2.038l-.986-.204A25.106 25.106 0 0 0 2 30c0 .236.011.468.018.702l.958-.081"></path><path d="M48.901 21.338l-24.995-2.342a1 1 0 0 1-.065-1.983s14.436-2.332 21.375-3.435l.526-.097C41.157 8.286 34.457 5 27 5 15.038 5 5.017 13.446 2.574 24.687l.99.205c7.866 1.153 20.462 3.1 20.588 3.12a1 1 0 0 1-.028 1.98L3.185 32.61l-1.037.088C3.498 45.219 14.126 55 27 55c9.307 0 17.437-5.116 21.74-12.679l-.591-.012c-11.052-.881-30.033-2.298-30.223-2.312a1 1 0 0 1-.036-1.991l32.381-3.598 1.357-.138a24.883 24.883 0 0 0-1.136-12.822l-1.591-.11zm-24.16-10.304a1 1 0 1 1 .518 1.932 1 1 0 0 1-.518-1.932zm10 33a1 1 0 1 1 .517 1.934 1 1 0 0 1-.517-1.934z"></path></g></g><!----></svg>