<?xml version="1.0" standalone="no"?><!DOCTYPE svg PUBLIC "-//W3C//DTD SVG 1.1//EN" "http://www.w3.org/Graphics/SVG/1.1/DTD/svg11.dtd"><svg t="1579194497121" class="icon" viewBox="0 0 1024 1024" version="1.1" xmlns="http://www.w3.org/2000/svg" p-id="1853" xmlns:xlink="http://www.w3.org/1999/xlink" width="40px" height="40px"><defs><style type="text/css"></style></defs><path d="M853.242 938.558c0 47.114-38.178 85.324-85.292 85.324H256.082c-47.114 0-85.324-38.21-85.324-85.324V85.41c0-47.116 38.21-85.292 85.324-85.292h511.868c47.116 0 85.292 38.178 85.292 85.292v853.148z" fill="#E6E9ED" p-id="1854"></path><path d="M170.758 853.234v85.324c0 47.114 38.21 85.324 85.324 85.324h511.868c47.116 0 85.292-38.21 85.292-85.324v-85.324H170.758z" fill="#656D78" p-id="1855"></path><path d="M554.688 938.558c0 23.556-19.106 42.646-42.664 42.646-23.556 0-42.678-19.09-42.678-42.646 0-23.558 19.122-42.646 42.678-42.646 23.558 0 42.664 19.088 42.664 42.646z" fill="#E6E9ED" p-id="1856"></path><path d="M746.642 639.97H277.39a21.292 21.292 0 0 0-21.308 21.306c0 11.81 9.53 21.338 21.308 21.338h469.252c11.748 0 21.306-9.528 21.306-21.338 0.002-11.778-9.558-21.306-21.306-21.306zM512.024 725.264c-0.344 0-0.656 0.06-0.968 0.06v-0.06H277.39c-11.78 0-21.308 9.558-21.308 21.338s9.53 21.34 21.308 21.34h233.664v-0.062c0.312 0.032 0.624 0.062 0.968 0.062 11.78 0 21.308-9.56 21.308-21.34s-9.528-21.338-21.306-21.338z" fill="#434A54" p-id="1857"></path><path d="M383.022 119.684c122.378-70.672 278.89-28.712 349.56 93.666 70.672 122.376 28.744 278.904-93.664 349.574-122.394 70.64-278.922 28.712-349.562-93.664-70.67-122.41-28.742-278.906 93.666-349.576z" fill="#FFCE54" p-id="1858"></path><path d="M732.582 469.26c44.118-76.544 47.366-173.898 0-255.91-47.364-81.982-133.218-127.876-221.528-127.97v255.972l221.528 127.908z" fill="#ED5564" p-id="1859"></path></svg>