<?xml version="1.0" standalone="no"?><!DOCTYPE svg PUBLIC "-//W3C//DTD SVG 1.1//EN" "http://www.w3.org/Graphics/SVG/1.1/DTD/svg11.dtd"><svg class="icon" width="60px" height="60.00px" viewBox="0 0 1024 1024" version="1.1" xmlns="http://www.w3.org/2000/svg"><path d="M208.7936 639.95904h320v-98.07872H208.7936z" fill="#FFE7CF" /><path d="M44.71808 908.9024a6.31808 6.31808 0 0 0-6.31808 6.30784v64.1536c0 3.4816 2.82624 6.32832 6.31808 6.32832h934.56384c3.4816 0 6.31808-2.83648 6.31808-6.32832v-64.1536a6.31808 6.31808 0 0 0-6.31808-6.31808H685.44512l-0.47104 1.36192a44.8512 44.8512 0 0 1-42.0864 29.7984l-261.632 0.512h-0.1024a44.8 44.8 0 0 1-42.14784-29.76768l-0.6656-1.90464H44.71808zM695.52128 58.08128a41.64608 41.64608 0 0 0-41.61536 41.59488v19.2a41.64608 41.64608 0 0 0 41.61536 41.60512h70.4a41.64608 41.64608 0 0 0 41.58464-41.60512V99.67616a41.64608 41.64608 0 0 0-41.58464-41.59488h-70.4z" fill="#DAE6EE" /><path d="M66.39616 966.4h38.4v-38.4h-38.4zM916.31616 966.4h38.4v-38.4h-38.4zM685.824 129.75104h38.4v-38.4h-38.4z" fill="#0E5DA1" /><path d="M458.496 366.92992l-33.3312-19.05664 29.68576-51.93728-29.696-51.94752 33.34144-19.0464 40.57088 70.99392zM286.78144 366.92992L246.21056 295.936l40.57088-70.99392 33.3312 19.0464-29.68576 51.94752 29.68576 51.93728z" fill="#FFA950" /><path d="M44.71808 908.8a6.31808 6.31808 0 0 0-6.31808 6.32832v64.14336c0 3.4816 2.82624 6.33856 6.31808 6.33856h934.56384c3.4816 0 6.31808-2.84672 6.31808-6.33856v-64.14336a6.31808 6.31808 0 0 0-6.31808-6.31808H685.44512l-0.47104 1.35168a44.83072 44.83072 0 0 1-42.0864 29.7984l-261.632 0.512h-0.1024a44.8 44.8 0 0 1-42.14784-29.76768l-0.6656-1.8944H44.71808zM979.28192 1024H44.71808A44.77952 44.77952 0 0 1 0 979.28192v-64.14336A44.76928 44.76928 0 0 1 44.71808 870.4h308.30592a19.2 19.2 0 0 1 19.2 19.05664l2.9696 8.40704a6.3488 6.3488 0 0 0 5.95968 4.1984h0.01024l261.66272-0.512a6.3488 6.3488 0 0 0 5.9392-4.1984l3.84-10.8544c0.49152-2.69312 1.51552-5.28384 3.072-7.50592 3.61472-5.07904 9.27744-8.6016 15.5136-8.6016h308.09088A44.76928 44.76928 0 0 1 1024 915.13856v64.14336c0 24.6784-20.0704 44.73856-44.71808 44.73856zM972.72832 810.67008h-38.4V312.22784c0-16.73216-11.76576-30.88384-25.68192-30.88384h-294.4v-38.4h294.4c35.328 0 64.08192 31.08864 64.08192 69.28384v498.44224zM89.52832 810.67008h-38.4V204.71808c0-38.20544 28.75392-69.29408 64.08192-69.29408h15.44192v38.4H115.2c-13.9264 0-25.68192 14.15168-25.68192 30.89408v605.952zM169.29792 810.67008h702.98624v-38.4H169.29792z" fill="#0E5DA1" /><path d="M182.55872 541.9008h371.2v-38.4h-371.2zM297.75872 109.27104h38.4v-38.4h-38.4zM361.75872 109.27104h89.6v-38.4h-89.6z" fill="#FFA950" /><path d="M213.17632 38.4a4.44416 4.44416 0 0 0-4.37248 4.38272v592.7936c0 2.38592 2.00704 4.38272 4.37248 4.38272h311.2448a4.43392 4.43392 0 0 0 4.38272-4.38272V42.78272a4.44416 4.44416 0 0 0-4.38272-4.38272H213.17632z m311.2448 639.95904H213.17632a42.82368 42.82368 0 0 1-42.77248-42.78272V42.78272A42.82368 42.82368 0 0 1 213.17632 0h311.2448a42.82368 42.82368 0 0 1 42.78272 42.78272v592.7936a42.82368 42.82368 0 0 1-42.78272 42.78272z" fill="#FFA950" /><path d="M695.52128 59.36128a41.64608 41.64608 0 0 0-41.61536 41.59488v19.2a41.64608 41.64608 0 0 0 41.61536 41.60512h70.4a41.64608 41.64608 0 0 0 41.58464-41.60512V100.95616a41.64608 41.64608 0 0 0-41.58464-41.59488h-70.4z m70.4 140.77952h-70.4c-44.11392 0-80.01536-35.88096-80.01536-79.98464V100.95616c0-44.11392 35.90144-79.99488 80.01536-79.99488h70.4c44.10368 0 79.98464 35.88096 79.98464 79.99488v19.2c0 44.10368-35.88096 79.98464-79.98464 79.98464zM757.59616 475.3408h38.4v-38.4h-38.4z" fill="#0E5DA1" /><path d="M368.7936 584.13056a6.41024 6.41024 0 1 0 0.01024 12.8 6.41024 6.41024 0 0 0 0-12.8m0 38.4a32.0512 32.0512 0 0 1-32.01024-32 32.0512 32.0512 0 0 1 32-32 32.04096 32.04096 0 0 1 32 32 32.04096 32.04096 0 0 1-32 32M369.5104 359.68l-36.05504-13.2096 43.59168-118.9888 36.0448 13.23008z" fill="#FFA950" /><path d="M614.23616 395.9808h268.8v-38.4h-268.8zM614.23616 475.3408h115.2v-38.4h-115.2zM656.25088 635.09504h-38.4v-89.6c0-10.5984 8.6016-19.17952 19.2-19.17952h89.6v38.37952h-70.4v70.4z" fill="#0E5DA1" /><path d="M700.27264 635.87328l-76.8-76.8 27.15648-27.14624 76.8 76.8z" fill="#0E5DA1" /></svg>