<?xml version="1.0" standalone="no"?><!DOCTYPE svg PUBLIC "-//W3C//DTD SVG 1.1//EN" "http://www.w3.org/Graphics/SVG/1.1/DTD/svg11.dtd"><svg t="1579205646550" class="icon" viewBox="0 0 1024 1024" version="1.1" xmlns="http://www.w3.org/2000/svg" p-id="52995" xmlns:xlink="http://www.w3.org/1999/xlink" width="40px" height="40px"><defs><style type="text/css"></style></defs><path d="M944.8 840.4H79.2C36.4 840.4 1.6 805.6 1.6 762.8V77.6C1.6 34.8 36.4 0 79.2 0h866c42.4 0 77.2 34.4 77.2 77.2v686c0 42.4-34.8 77.2-77.6 77.2zM79.2 14.4C44.4 14.4 16 42.8 16 77.6v685.6c0 34.8 28.4 63.2 63.2 63.2h865.6c34.8 0 63.2-28.4 63.2-63.2V77.2c0-34.4-28-62.8-62.8-62.8H79.2z m868.4 670.4H81.2V88.4h866.4v596.4z m-852-14.4h837.6V102.8H95.6v567.6z" fill="#4A555F" p-id="52996"></path><path d="M79.2 31.2C53.6 31.2 32.8 52 32.8 77.6v685.6c0 25.6 20.8 46.4 46.4 46.4h865.6c25.6 0 46.4-20.8 46.4-46.4V71.6c0-22.4-18-40.4-40.4-40.4H79.2z m885.2 670.4h-900V71.6h900v630z" fill="#E0E0E0" p-id="52997"></path><path d="M676.8 961.2h-320l56.4-135.2h207.6l56 135.2z m-298.4-14.4h276.8l-44.4-106.4h-188.4l-44 106.4z" fill="#4A555F" p-id="52998"></path><path d="M403.6 930l30.4-72.8H600l30 72.8z" fill="#E0E0E0" p-id="52999"></path><path d="M807.2 1024H226.8v-77.2h580.4V1024z m-566-14.4h551.6v-48.4H241.2v48.4z" fill="#4A555F" p-id="53000"></path><path d="M258 978H776v14.8H258z" fill="#E0E0E0" p-id="53001"></path><path d="M35.6 1009.6h962.8v14.4H35.6z" fill="#4A555F" p-id="53002"></path><path d="M517.6 756.4m-38 0a38 38 0 1 0 76 0 38 38 0 1 0-76 0Z" fill="#FFFFFF" p-id="53003"></path><path d="M517.6 801.6c-24.8 0-45.2-20.4-45.2-45.2 0-24.8 20.4-45.2 45.2-45.2 24.8 0 45.2 20.4 45.2 45.2 0 24.8-20.4 45.2-45.2 45.2z m0-76c-16.8 0-30.8 13.6-30.8 30.8 0 16.8 13.6 30.8 30.8 30.8s30.8-13.6 30.8-30.8c0-16.8-14-30.8-30.8-30.8zM726.4 439.6c-68.8 0-124.8-56-124.8-124.8v-7.2h120.8l64-102.8 6 4c36.8 23.2 58.8 62.8 58.8 106 0.4 68.8-56 124.8-124.8 124.8zM616 322c3.6 57.6 51.6 103.2 110.4 103.2 60.8 0 110.4-49.6 110.4-110.4 0-36-17.2-69.2-46-90l-60.4 97.2H616z" fill="#4A555F" p-id="53004"></path><path d="M726.4 408.4c-43.2 0-80-29.6-90.4-69.6h104l54.8-88.4c16.4 17.2 25.6 40 25.6 64.4-0.4 51.6-42.4 93.6-94 93.6z" fill="#FFD552" p-id="53005"></path><path d="M730.4 322h-128.8v-7.2c0-68.8 56-124.8 124.8-124.8 23.2 0 46.4 6.4 66 18.8l6 4-68 109.2zM616 307.6h106.4l56-90.4c-16-8.4-34-13.2-52-13.2C668 204 620 250 616 307.6z" fill="#4A555F" p-id="53006"></path><path d="M636 290.8c10.8-40 47.2-69.6 90.4-69.6 9.2 0 18.8 1.2 27.6 4l-40.8 65.6H636zM619.6 513.6h60.8v109.2h-60.8z" fill="#F68F6F" p-id="53007"></path><path d="M792.8 567.2h60.8v55.6h-60.8z" fill="#71CDE1" p-id="53008"></path><path d="M710 487.6h57.6v135.2h-57.6z" fill="#FFD552" p-id="53009"></path><path d="M688 630h-75.2v-123.6H688v123.6z m-61.2-14.4h46.4v-94.8h-46.4v94.8zM860.8 630h-75.2V560h75.2v70z m-60.8-14.4h46.4v-41.2H800v41.2zM774.8 630h-72v-149.6h72v149.6z m-57.6-14.4h43.2v-120.8h-43.2v120.8zM174.4 186h14.4v441.6h-14.4z" fill="#4A555F" p-id="53010"></path><path d="M144.4 584h404.8v14.4H144.4z" fill="#4A555F" p-id="53011"></path><path d="M320.8 481.6l-11.6-8.4 8.4-11.6 11.6 8.4-8.4 11.6z m16.4-23.6l-11.6-8.4 8.4-11.6 11.6 8.4-8.4 11.6z m16.8-23.6l-11.6-8.4 8.4-11.6 11.6 8.4-8.4 11.6z m16.4-23.6l-11.6-8.4 8.4-11.6 11.6 8.4-8.4 11.6z m16.8-23.6l-11.6-8.4 8.4-11.6 11.6 8.4-8.4 11.6z" fill="#4A555F" p-id="53012"></path><path d="M463.6 326.8l-4.4-13.6 13.6-4.4 4.4 13.6-13.6 4.4z m27.6-8.8l-4.4-13.6 13.6-4.4 4.4 13.6-13.6 4.4z m27.6-8.4l-4.4-13.6 13.6-4.4 4.4 13.6-13.6 4.4z" fill="#4A555F" p-id="53013"></path><path d="M208 549.2l-11.2-9.2 9.2-11.2 11.2 9.2-9.2 11.2z m18-22.8l-11.2-9.2 9.2-11.2 11.2 9.2-9.2 11.2zM244 504l-11.2-9.2 9.2-11.2 11.2 9.2L244 504z" fill="#4A555F" p-id="53014"></path><path d="M274 454m-22.8 0a22.8 22.8 0 1 0 45.6 0 22.8 22.8 0 1 0-45.6 0Z" fill="#FFD552" p-id="53015"></path><path d="M417.6 332m-22.8 0a22.8 22.8 0 1 0 45.6 0 22.8 22.8 0 1 0-45.6 0Z" fill="#FFD552" p-id="53016"></path><path d="M274 484c-16.8 0-30-13.6-30-30s13.6-30 30-30 30 13.6 30 30-13.2 30-30 30z m0-45.6c-8.8 0-15.6 7.2-15.6 15.6s7.2 15.6 15.6 15.6c8.8 0 15.6-7.2 15.6-15.6s-6.8-15.6-15.6-15.6z" fill="#4A555F" p-id="53017"></path><path d="M417.6 362.4c-16.8 0-30-13.6-30-30s13.6-30 30-30c16.8 0 30 13.6 30 30s-13.6 30-30 30z m0-46c-8.8 0-15.6 7.2-15.6 15.6 0 8.8 7.2 15.6 15.6 15.6 8.8 0 15.6-7.2 15.6-15.6 0-8.4-7.2-15.6-15.6-15.6z" fill="#4A555F" p-id="53018"></path><path d="M244 568l36-49.6 49.2 16.8 116-158 83.2-26V568zM293.2 181.6L244.4 230.4h26.8v52.8h44V230.4h26.8z" fill="#F68F6F" p-id="53019"></path><path d="M322.4 290.4H264V237.6h-36.8l66-66.4 66 66.4h-36.8v52.8z m-44-14.4H308V223.2h16.4L293.2 192l-31.2 31.2h16.4V276z" fill="#4A555F" p-id="53020"></path></svg>