<?xml version="1.0" standalone="no"?><!DOCTYPE svg PUBLIC "-//W3C//DTD SVG 1.1//EN" "http://www.w3.org/Graphics/SVG/1.1/DTD/svg11.dtd"><svg class="icon" width="60px" height="60.00px" viewBox="0 0 1024 1024" version="1.1" xmlns="http://www.w3.org/2000/svg"><path d="M323.18439 1022.601366c-6.094049 0-12.088195-1.398634-17.582829-4.096-13.287024-6.693463-21.778732-20.280195-21.778732-35.165659V835.384195C110.791805 761.356488 0.499512 609.304976 0.499512 441.269073 0.499512 198.606049 229.575805 1.298732 511.20078 1.298732s510.701268 197.40722 510.701269 439.970341c0 238.766829-221.883317 433.676488-497.314342 439.770537l-177.726439 133.669463c-6.893268 5.095024-15.185171 7.892293-23.676878 7.892293zM511.20078 79.822049c-238.267317 0-432.078049 162.141659-432.078048 361.347122 0 142.96039 101.201171 272.733659 257.748292 330.677073 15.384976 5.694439 25.674927 20.380098 25.674927 36.864v95.806439l125.077854-94.108098c6.793366-5.095024 15.085268-7.892293 23.576975-7.892292 238.267317 0 432.078049-162.141659 432.078049-361.347122 0-199.205463-193.810732-361.347122-432.078049-361.347122z m0 0" fill="#212121" /><path d="M486.424976 698.417951c-142.56078 0-258.84722-85.416585-310.996293-228.57678l92.209951-33.667122c37.962927 104.198244 117.685073 164.039805 218.686439 164.039805v98.204097z m0 0" fill="#FFC64B" /></svg>