<?xml version="1.0" standalone="no"?><!DOCTYPE svg PUBLIC "-//W3C//DTD SVG 1.1//EN" "http://www.w3.org/Graphics/SVG/1.1/DTD/svg11.dtd"><svg class="icon" width="90px" height="90.00px" viewBox="0 0 1024 1024" version="1.1" xmlns="http://www.w3.org/2000/svg"><path d="M580 16c-88.368 0-160 71.632-160 160 0 7.008 0.608 13.856 1.472 20.608a192.064 192.064 0 0 1 144.048 138.656c4.768 0.432 9.584 0.736 14.48 0.736 88.368 0 160-71.632 160-160s-71.632-160-160-160z" fill="#40C4FF" /><path d="M580 344c-5.12 0-10.192-0.32-15.2-0.768a8 8 0 0 1 1.44-15.936c4.544 0.4 9.104 0.704 13.76 0.704 83.808 0 152-68.192 152-152s-68.192-152-152-152-152 68.192-152 152c0 5.824 0.448 12.064 1.408 19.616a8 8 0 1 1-15.888 2.016A170.384 170.384 0 0 1 412 176c0-92.64 75.36-168 168-168s168 75.36 168 168-75.36 168-168 168zM888 592a8 8 0 0 1-8-8V464c0-39.696-32.304-72-72-72H572a8 8 0 0 1 0-16H808c48.512 0 88 39.472 88 88v120a8 8 0 0 1-8 8zM808 1016H112A88.096 88.096 0 0 1 24 928V464c0-48.528 39.488-88 88-88h76a8 8 0 0 1 0 16H112A72.08 72.08 0 0 0 40 464v464c0 39.696 32.304 72 72 72h696c39.696 0 72-32.304 72-72v-120a8 8 0 0 1 16 0V928c0 48.528-39.488 88-88 88z" fill="#263238" /><path d="M952 784H720c-26.464 0-48-21.536-48-48v-80c0-26.464 21.536-48 48-48h232c26.464 0 48 21.536 48 48v80c0 26.464-21.536 48-48 48zM720 624c-17.648 0-32 14.352-32 32v80c0 17.648 14.352 32 32 32h232c17.648 0 32-14.352 32-32v-80c0-17.648-14.352-32-32-32H720z" fill="#263238" /><path d="M760 744c-26.464 0-48-21.536-48-48s21.536-48 48-48 48 21.536 48 48-21.536 48-48 48z m0-80c-17.648 0-32 14.352-32 32s14.352 32 32 32 32-14.352 32-32-14.352-32-32-32zM200 224a8 8 0 0 1-8-8v-64a8 8 0 0 1 16 0v64a8 8 0 0 1-8 8z" fill="#263238" /><path d="M232 192h-64a8 8 0 0 1 0-16h64a8 8 0 0 1 0 16zM96 152a8 8 0 0 1-8-8V80a8 8 0 0 1 16 0v64a8 8 0 0 1-8 8z" fill="#263238" /><path d="M128 120H64a8 8 0 0 1 0-16h64a8 8 0 0 1 0 16z" fill="#263238" /><path d="M580 288l-72-112 72-112 72 112z" fill="#FFFFFF" /><path d="M580 296a8.032 8.032 0 0 1-6.736-3.664l-72-112a8.064 8.064 0 0 1 0-8.656l72-112c2.976-4.576 10.496-4.576 13.472 0l72 112a8.064 8.064 0 0 1 0 8.656l-72 112a8.032 8.032 0 0 1-6.736 3.664zM517.52 176l62.48 97.2L642.48 176 580 78.8 517.52 176z" fill="#263238" /><path d="M580 216a7.904 7.904 0 0 1-3.248-0.688l-72-32a8 8 0 0 1 0-14.624l72-32a7.92 7.92 0 0 1 6.496 0l72 32a8 8 0 0 1 0 14.624l-72 32a7.904 7.904 0 0 1-3.248 0.688zM527.696 176l52.304 23.248L632.304 176 580 152.752 527.696 176z" fill="#263238" /><path d="M580 288a8 8 0 0 1-8-8v-208a8 8 0 0 1 16 0v208a8 8 0 0 1-8 8z" fill="#263238" /><path d="M380 384m-160 0a160 160 0 1 0 320 0 160 160 0 1 0-320 0Z" fill="#FFD740" /><path d="M380 552c-92.64 0-168-75.36-168-168s75.36-168 168-168 168 75.36 168 168-75.36 168-168 168z m0-320c-83.808 0-152 68.192-152 152s68.192 152 152 152 152-68.192 152-152-68.192-152-152-152z" fill="#263238" /><path d="M340 328h-24a8 8 0 0 1 0-16h24a8 8 0 0 1 0 16zM340 456h-24a8 8 0 0 1 0-16h24a8 8 0 0 1 0 16zM364 328a8 8 0 0 1-8-8v-32a8 8 0 0 1 16 0v32a8 8 0 0 1-8 8zM396 328a8 8 0 0 1-8-8v-32a8 8 0 0 1 16 0v32a8 8 0 0 1-8 8z" fill="#263238" /><path d="M396 392h-56a8 8 0 0 1-8-8v-64a8 8 0 0 1 8-8h56c22.064 0 40 17.952 40 40s-17.936 40-40 40z m-48-16h48c13.232 0 24-10.768 24-24s-10.768-24-24-24h-48v48z" fill="#263238" /><path d="M412 456h-72a8 8 0 0 1-8-8v-64a8 8 0 0 1 8-8h72c22.064 0 40 17.952 40 40s-17.936 40-40 40z m-64-16h64c13.232 0 24-10.768 24-24s-10.768-24-24-24h-64v48z" fill="#263238" /><path d="M364 488a8 8 0 0 1-8-8v-32a8 8 0 0 1 16 0v32a8 8 0 0 1-8 8zM396 488a8 8 0 0 1-8-8v-32a8 8 0 0 1 16 0v32a8 8 0 0 1-8 8zM120 936H80a8 8 0 0 1 0-16h40a8 8 0 0 1 0 16zM200 936H160a8 8 0 0 1 0-16h40a8 8 0 0 1 0 16zM280 936H240a8 8 0 0 1 0-16h40a8 8 0 0 1 0 16zM360 936H320a8 8 0 0 1 0-16h40a8 8 0 0 1 0 16zM440 936H400a8 8 0 0 1 0-16h40a8 8 0 0 1 0 16zM520 936H480a8 8 0 0 1 0-16h40a8 8 0 0 1 0 16zM600 936H560a8 8 0 0 1 0-16h40a8 8 0 0 1 0 16zM680 936H640a8 8 0 0 1 0-16h40a8 8 0 0 1 0 16zM760 936H720a8 8 0 0 1 0-16h40a8 8 0 0 1 0 16z" fill="#263238" /><path d="M840 936H800a8 8 0 0 1 0-16h40a8 8 0 0 1 0 16z" fill="#263238" /><path d="M840 520a8 8 0 0 1-8-8v-40c0-17.648-14.352-32-32-32h-40a8 8 0 0 1 0-16H800c26.464 0 48 21.536 48 48V512a8 8 0 0 1-8 8z" fill="#263238" /></svg>