<?xml version="1.0" standalone="no"?><!DOCTYPE svg PUBLIC "-//W3C//DTD SVG 1.1//EN" "http://www.w3.org/Graphics/SVG/1.1/DTD/svg11.dtd"><svg class="icon" width="90px" height="90.00px" viewBox="0 0 1024 1024" version="1.1" xmlns="http://www.w3.org/2000/svg"><path d="M978.29888 792.95488c0 100.31104-81.31584 181.63712-181.62688 181.63712s-181.61664-81.32608-181.61664-181.63712c0-100.3008 81.3056-181.62688 181.61664-181.62688s181.62688 81.32608 181.62688 181.62688" fill="#DAE6EE" /><path d="M301.1584 185.04704v35.66592c0 4.5568-3.20512 9.1136-8.01792 10.62912l-32.0512 12.14464c-4.80256 2.28352-9.60512 0.75776-12.82048-2.27328l-23.22432-22.016-25.64096 24.28928 23.23456 22.016c3.19488 3.03104 3.9936 8.33536 2.39616 12.9024l-13.6192 29.58336c-2.39616 3.7888-6.4 6.83008-11.2128 6.83008h-32.84992v34.14016h33.64864c4.8128 0 9.6256 3.05152 11.22304 7.59808l12.81024 30.35136c2.41664 4.5568 0.79872 9.87136-2.39616 12.9024l-23.2448 22.016 25.6512 24.2688 24.02304-22.76352c3.21536-3.03104 8.01792-3.7888 12.83072-2.26304l31.232 12.9024c4.01408 1.51552 7.2192 6.06208 7.2192 10.61888V480.256h30.63808V185.0368H301.1584z" fill="#FFE7CF" /><path d="M190.83264 839.53664h72.6528V766.8736h-72.6528z" fill="#DAE6EE" /><path d="M747.52 461.45536h36.31104V122.42944H747.52zM865.75104 340.36736h36.31104V122.4192h-36.31104zM341.88288 766.8736h96.8704v-36.32128h-96.8704zM341.88288 867.072h36.33152v-36.33152h-36.33152zM408.4736 867.072h36.32128v-36.33152H408.4736zM579.20512 267.71456h36.32128v-145.3056h-36.32128zM579.20512 521.68704h36.32128V376.39168h-36.32128z" fill="#0E5DA1" /><path d="M597.37088 285.57312a36.37248 36.37248 0 0 0-36.33152 36.32128 36.37248 36.37248 0 0 0 36.33152 36.33152 36.352 36.352 0 0 0 36.31104-36.33152 36.352 36.352 0 0 0-36.31104-36.32128m0 108.98432c-40.05888 0-72.6528-32.59392-72.6528-72.66304 0-40.04864 32.59392-72.6528 72.6528-72.6528 40.04864 0 72.64256 32.60416 72.64256 72.6528 0 40.06912-32.59392 72.66304-72.64256 72.66304" fill="#0E5DA1" /><path d="M597.37088 285.57312a36.37248 36.37248 0 0 0-36.33152 36.32128 36.37248 36.37248 0 0 0 36.33152 36.33152 36.352 36.352 0 0 0 36.31104-36.33152 36.352 36.352 0 0 0-36.31104-36.32128" fill="#DAE6EE" /><path d="M332.5952 406.58944h-18.16576a72.41728 72.41728 0 0 1-72.3456-72.3456 72.41728 72.41728 0 0 1 72.3456-72.3456h18.16576v36.31104h-18.16576a35.6352 35.6352 0 0 0-36.02432 36.03456 35.6352 35.6352 0 0 0 36.02432 36.02432h18.16576v36.32128z" fill="#FFA950" /><path d="M332.5952 515.81952h-48.26112c-10.0352 0-18.16576-8.1408-18.16576-18.16576v-36.21888l-9.54368-4.13696-23.10144 23.10144a18.16576 18.16576 0 0 1-25.5488 0.13312l-43.008-42.14784a18.13504 18.13504 0 0 1 0.0512-25.98912l22.97856-22.36416-3.51232-8.3968h-33.46432c-10.0352 0-18.16576-8.13056-18.16576-18.15552V304.128c0-10.0352 8.12032-18.15552 18.16576-18.15552h33.05472l3.66592-8.02816-22.89664-22.8864a18.16576 18.16576 0 0 1 0.256-25.9584l43.008-41.2672a18.15552 18.15552 0 0 1 25.2416 0.06144l23.32672 22.70208 9.49248-3.85024v-35.9424c0-10.01472 8.1408-18.14528 18.16576-18.14528h48.26112v36.32128h-30.1056v30.0032c0 7.39328-4.47488 14.04928-11.33568 16.82432l-31.82592 12.9024a18.176 18.176 0 0 1-19.48672-3.80928l-19.2512-18.71872-16.95744 16.2816 18.70848 18.71872c5.36576 5.36576 6.83008 13.50656 3.6864 20.39808l-13.7728 30.1056a18.14528 18.14528 0 0 1-16.51712 10.60864h-26.56256v23.02976h27.42272c7.33184 0 13.94688 4.4032 16.76288 11.1616l12.9024 30.976c2.8672 6.87104 1.2288 14.80704-4.096 19.99872l-18.49344 17.99168 16.87552 16.55808 19.11808-19.11808a18.176 18.176 0 0 1 20.04992-3.82976l31.82592 13.75232c6.64576 2.88768 10.94656 9.43104 10.94656 16.67072v30.01344h30.1056v36.32128z" fill="#FFA950" /><path d="M354.77504 150.0672h36.31104v-25.8048h-36.31104zM354.77504 485.50912h36.31104v-309.6576h-36.31104zM354.77504 537.11872h36.31104v-25.8048h-36.31104z" fill="#0E5DA1" /><path d="M550.87104 997.04832H94.26944a67.38944 67.38944 0 0 1-67.31776-67.31776V94.26944a67.38944 67.38944 0 0 1 67.30752-67.31776h835.47136a67.39968 67.39968 0 0 1 67.328 67.31776v441.46688h-37.7856V94.26944a29.58336 29.58336 0 0 0-29.5424-29.55264H94.2592a29.58336 29.58336 0 0 0-29.53216 29.55264v835.46112a29.58336 29.58336 0 0 0 29.53216 29.55264h456.6016v37.76512z" fill="#0E5DA1" /><path d="M764.17024 725.8112v106.97728c61.15328-1.19808 88.25856-10.1376 88.25856-59.00288 0-13.1072-3.9936-22.71232-12.544-30.17728-18.25792-15.99488-53.00224-18.5344-75.71456-17.79712z m0 241.22368H727.8592V709.0176c0-9.09312 6.73792-16.78336 15.74912-17.99168 8.11008-1.08544 80.384-9.6256 120.2176 25.23136 16.31232 14.27456 24.9344 34.17088 24.9344 57.52832 0 85.97504-67.10272 94.53568-124.57984 95.39584v97.85344zM190.83264 839.53664h72.6528V766.8736h-72.6528v72.6528z m90.81856 36.31104H172.66688c-10.0352 0-18.16576-8.13056-18.16576-18.16576V748.71808c0-10.0352 8.1408-18.16576 18.16576-18.16576h108.98432c10.0352 0 18.15552 8.1408 18.15552 18.16576v108.96384c0 10.0352-8.13056 18.16576-18.15552 18.16576z" fill="#0E5DA1" /><path d="M748.55424 985.94816a18.2272 18.2272 0 0 1-4.80256-0.64512c-86.54848-23.6544-146.9952-102.912-146.9952-192.73728 0-110.16192 89.63072-199.79264 199.7824-199.79264 110.17216 0 199.7824 89.63072 199.7824 199.79264 0 76.84096-42.87488 145.62304-111.9232 179.48672a18.15552 18.15552 0 1 1-15.99488-32.62464c56.49408-27.70944 91.5968-83.968 91.5968-146.86208 0-90.13248-73.3184-163.46112-163.46112-163.46112-90.13248 0-163.45088 73.3184-163.45088 163.46112 0 73.50272 49.43872 138.3424 120.24832 157.696a18.15552 18.15552 0 0 1-4.78208 35.6864" fill="#0E5DA1" /></svg>