<?xml version="1.0" standalone="no"?><!DOCTYPE svg PUBLIC "-//W3C//DTD SVG 1.1//EN" "http://www.w3.org/Graphics/SVG/1.1/DTD/svg11.dtd"><svg class="icon" width="60px" height="60.00px" viewBox="0 0 1024 1024" version="1.1" xmlns="http://www.w3.org/2000/svg"><path d="M168 96h-64a8 8 0 0 1 0-16h64a8 8 0 0 1 0 16z" fill="#263238" /><path d="M136 128a8 8 0 0 1-8-8v-64a8 8 0 0 1 16 0v64a8 8 0 0 1-8 8zM72 168h-64a8 8 0 0 1 0-16h64a8 8 0 0 1 0 16z" fill="#263238" /><path d="M40 200A8 8 0 0 1 32 192V128a8 8 0 0 1 16 0v64a8 8 0 0 1-8 8zM920 296h-816A8 8 0 0 1 96 288v-88c0-26.464 21.536-48 48-48h736c26.464 0 48 21.536 48 48V288a8 8 0 0 1-8 8zM112 280h800v-80c0-17.648-14.352-32-32-32H144c-17.648 0-32 14.352-32 32v80z" fill="#263238" /><path d="M160 256c-17.648 0-32-14.352-32-32s14.352-32 32-32 32 14.352 32 32-14.352 32-32 32z m0-48a16.016 16.016 0 0 0 0 32 16.016 16.016 0 0 0 0-32zM240 256c-17.648 0-32-14.352-32-32s14.352-32 32-32 32 14.352 32 32-14.352 32-32 32z m0-48a16.016 16.016 0 0 0 0 32 16.016 16.016 0 0 0 0-32zM200 936h-32a8 8 0 0 1 0-16h32a8 8 0 0 1 0 16zM552 936h-320a8 8 0 0 1 0-16h320a8 8 0 0 1 0 16zM856 104h-32a8 8 0 0 1 0-16h32a8 8 0 0 1 0 16zM792 104h-320a8 8 0 0 1 0-16h320a8 8 0 0 1 0 16z" fill="#263238" /><path d="M834.976 786.976v135.776l39.6-39.6 84.848 84.848 56.576-56.576-84.848-84.848 39.6-39.6z" fill="#40C4FF" /><path d="M959.44 976a8.064 8.064 0 0 1-5.664-2.336l-79.2-79.2-33.936 33.936a8 8 0 1 1-13.664-5.664v-135.76a8 8 0 0 1 8-8h135.76a8 8 0 0 1 5.664 13.664l-33.952 33.952 79.2 79.2a8 8 0 0 1 0 11.312l-56.56 56.576a8.048 8.048 0 0 1-5.648 2.32z m-84.864-100.848c2.048 0 4.096 0.784 5.664 2.336l79.2 79.2 45.248-45.264-79.2-79.2a8 8 0 0 1 0-11.328l25.952-25.952h-108.448v108.448l25.936-25.936a8.08 8.08 0 0 1 5.648-2.304z" fill="#263238" /><path d="M802.992 872H144c-26.464 0-48-21.536-48-48V288a8 8 0 0 1 8-8h816a8 8 0 0 1 8 8v466.992a8 8 0 0 1-16 0V296H112v528c0 17.648 14.352 32 32 32h658.992a8 8 0 0 1 0 16z" fill="#263238" /><path d="M272 336h480v160H272z" fill="#FFD740" /><path d="M752 504H272a8 8 0 0 1-8-8V336a8 8 0 0 1 8-8h480a8 8 0 0 1 8 8v160a8 8 0 0 1-8 8z m-472-16h464v-144h-464v144z" fill="#263238" /><path d="M752 504a7.744 7.744 0 0 1-2.528-0.416l-480-160a8 8 0 1 1 5.072-15.168l480 160A8 8 0 0 1 752 504z" fill="#263238" /><path d="M272 504a8 8 0 0 1-2.544-15.584l480-160a8 8 0 0 1 5.072 15.168l-480 160A7.744 7.744 0 0 1 272 504zM224 464a8.032 8.032 0 0 1-5.664-2.336l-40-40a8 8 0 0 1 0-11.312l40-40a8 8 0 0 1 11.312 11.312L195.312 416l34.336 34.336A8 8 0 0 1 224 464zM800 464a8 8 0 0 1-5.664-13.648L828.688 416l-34.336-34.336a8 8 0 0 1 11.312-11.312l40 40a8 8 0 0 1 0 11.312l-40 40A8.032 8.032 0 0 1 800 464z" fill="#263238" /><path d="M272 560h128v128h-128z" fill="#FF5252" /><path d="M400 696h-128a8 8 0 0 1-8-8v-128a8 8 0 0 1 8-8h128a8 8 0 0 1 8 8v128a8 8 0 0 1-8 8z m-120-16h112v-112h-112v112z" fill="#263238" /><path d="M400 696a8.032 8.032 0 0 1-5.664-2.336l-128-128a8 8 0 0 1 11.312-11.312l128 128A8 8 0 0 1 400 696z" fill="#263238" /><path d="M272 696a8 8 0 0 1-5.664-13.648l128-128a8 8 0 0 1 11.312 11.312l-128 128A7.968 7.968 0 0 1 272 696zM561.328 568h-120a8 8 0 0 1 0-16h120a8 8 0 0 1 0 16zM561.328 632h-120a8 8 0 0 1 0-16h120a8 8 0 0 1 0 16zM561.328 696h-120a8 8 0 0 1 0-16h120a8 8 0 0 1 0 16zM752 824h-128a8 8 0 0 1-8-8V560a8 8 0 0 1 8-8h128a8 8 0 0 1 8 8v256a8 8 0 0 1-8 8z m-120-16h112v-240h-112v240z" fill="#263238" /><path d="M752 824a8 8 0 0 1-7.152-4.416l-128-256a8 8 0 0 1 14.32-7.152l128 256A8 8 0 0 1 752 824z" fill="#263238" /><path d="M624 824a8 8 0 0 1-7.168-11.584l128-256a8 8 0 0 1 14.32 7.152l-128 256A7.984 7.984 0 0 1 624 824z" fill="#263238" /><path d="M560 840a8 8 0 0 1-8-8v-72h-272V832a8 8 0 0 1-16 0v-80a8 8 0 0 1 8-8h288a8 8 0 0 1 8 8v80a8 8 0 0 1-8 8z" fill="#263238" /></svg>